<svg width="10" height="10" viewBox="0 0 10 10" fill="none" xmlns="http://www.w3.org/2000/svg">
<path d="M4.99999 5.00016C5.22916 5.00016 5.42534 4.91857 5.58853 4.75537C5.75173 4.59218 5.83332 4.396 5.83332 4.16683C5.83332 3.93766 5.75173 3.74148 5.58853 3.57829C5.42534 3.41509 5.22916 3.3335 4.99999 3.3335C4.77082 3.3335 4.57464 3.41509 4.41145 3.57829C4.24825 3.74148 4.16666 3.93766 4.16666 4.16683C4.16666 4.396 4.24825 4.59218 4.41145 4.75537C4.57464 4.91857 4.77082 5.00016 4.99999 5.00016ZM4.99999 8.06266C5.84721 7.28489 6.47568 6.57829 6.88541 5.94287C7.29513 5.30746 7.49999 4.74322 7.49999 4.25016C7.49999 3.49322 7.25867 2.87343 6.77603 2.39079C6.29339 1.90815 5.70138 1.66683 4.99999 1.66683C4.2986 1.66683 3.70659 1.90815 3.22395 2.39079C2.74131 2.87343 2.49999 3.49322 2.49999 4.25016C2.49999 4.74322 2.70485 5.30746 3.11457 5.94287C3.5243 6.57829 4.15277 7.28489 4.99999 8.06266ZM4.99999 9.16683C3.88193 8.21544 3.04686 7.33176 2.49478 6.51579C1.9427 5.69982 1.66666 4.94461 1.66666 4.25016C1.66666 3.2085 2.00173 2.37864 2.67186 1.76058C3.342 1.14252 4.11805 0.833496 4.99999 0.833496C5.88193 0.833496 6.65798 1.14252 7.32811 1.76058C7.99825 2.37864 8.33332 3.2085 8.33332 4.25016C8.33332 4.94461 8.05728 5.69982 7.5052 6.51579C6.95311 7.33176 6.11805 8.21544 4.99999 9.16683Z" fill="black"/>
<path d="M5.00002 5.00016C5.22919 5.00016 5.42537 4.91857 5.58856 4.75537C5.75176 4.59218 5.83335 4.396 5.83335 4.16683C5.83335 3.93766 5.75176 3.74148 5.58856 3.57829C5.42537 3.41509 5.22919 3.3335 5.00002 3.3335C4.77085 3.3335 4.57467 3.41509 4.41148 3.57829C4.24828 3.74148 4.16669 3.93766 4.16669 4.16683C4.16669 4.396 4.24828 4.59218 4.41148 4.75537C4.57467 4.91857 4.77085 5.00016 5.00002 5.00016ZM5.00002 8.06266C5.84724 7.28489 6.47571 6.57829 6.88544 5.94287C7.29516 5.30746 7.50002 4.74322 7.50002 4.25016C7.50002 3.49322 7.2587 2.87343 6.77606 2.39079C6.29342 1.90815 5.70141 1.66683 5.00002 1.66683C4.29863 1.66683 3.70662 1.90815 3.22398 2.39079C2.74134 2.87343 2.50002 3.49322 2.50002 4.25016C2.50002 4.74322 2.70488 5.30746 3.1146 5.94287C3.52433 6.57829 4.1528 7.28489 5.00002 8.06266ZM5.00002 9.16683C3.88196 8.21544 3.0469 7.33176 2.49481 6.51579C1.94273 5.69982 1.66669 4.94461 1.66669 4.25016C1.66669 3.2085 2.00176 2.37864 2.6719 1.76058C3.34203 1.14252 4.11808 0.833496 5.00002 0.833496C5.88196 0.833496 6.65801 1.14252 7.32815 1.76058C7.99828 2.37864 8.33335 3.2085 8.33335 4.25016C8.33335 4.94461 8.05731 5.69982 7.50523 6.51579C6.95315 7.33176 6.11808 8.21544 5.00002 9.16683Z" fill="black"/>
</svg>
