<svg width="22" height="22" viewBox="0 0 22 22" fill="none" xmlns="http://www.w3.org/2000/svg">
<path d="M17.4854 18.6769C15.6368 18.5394 13.8837 18.0849 12.226 17.3133C10.5684 16.5418 9.08264 15.4991 7.76875 14.1852C6.45486 12.8713 5.41979 11.3894 4.66354 9.73939C3.90729 8.08939 3.45278 6.34008 3.3 4.49147C3.26944 4.17064 3.36333 3.89182 3.58165 3.65501C3.79981 3.41821 4.0726 3.2998 4.4 3.2998H7.51667C7.77639 3.2998 8.00174 3.38001 8.19271 3.54043C8.38368 3.70085 8.50972 3.90328 8.57083 4.14772L9.12083 6.57689C9.15139 6.7755 9.13993 6.96647 9.08646 7.1498C9.03299 7.33314 8.94514 7.48592 8.82292 7.60814L6.6 9.85397C6.90556 10.4345 7.25694 10.9922 7.65417 11.5269C8.05139 12.0616 8.49422 12.5656 8.98265 13.0389C9.44144 13.4976 9.93056 13.9217 10.45 14.3113C10.9694 14.7008 11.5194 15.0484 12.1 15.354L14.3687 13.154C14.491 13.0317 14.6438 12.9439 14.8271 12.8904C15.0104 12.837 15.2014 12.8255 15.4 12.8561L17.8521 13.3831C18.1118 13.4595 18.3181 13.5932 18.4708 13.7842C18.6236 13.9752 18.7 14.2005 18.7 14.4602V17.5769C18.7 17.9043 18.5778 18.1771 18.3333 18.3952C18.0889 18.6136 17.8062 18.7074 17.4854 18.6769ZM5.84375 8.2498L7.44792 6.64564L7.05467 4.9498H4.99583C5.07222 5.53036 5.17917 6.09182 5.31667 6.63418C5.45417 7.17654 5.62986 7.71508 5.84375 8.2498ZM13.7271 16.1331C14.2633 16.3507 14.8099 16.5235 15.3668 16.6515C15.9236 16.7795 16.4847 16.8817 17.05 16.9581V14.8956L15.3313 14.529L13.7271 16.1331Z" fill="black"/>
</svg>
