<svg width="23" height="23" viewBox="0 0 23 23" fill="none" xmlns="http://www.w3.org/2000/svg">
<path d="M8.36147 19.5502C7.00383 19.5502 5.84585 19.071 4.88751 18.1127C3.92918 17.1544 3.45001 15.9964 3.45001 14.6387C3.45001 14.0797 3.54185 13.5367 3.72553 13.0096C3.90921 12.4825 4.16876 12.0033 4.50418 11.5721L7.61876 7.61895L5.89376 3.4502H17.1063L15.3573 7.61895L18.4958 11.5721C18.8313 12.0033 19.0908 12.4825 19.2745 13.0096C19.4582 13.5367 19.55 14.0797 19.55 14.6387C19.55 15.9964 19.0708 17.1544 18.1125 18.1127C17.1542 19.071 15.9962 19.5502 14.6386 19.5502H8.36147ZM11.5 15.2377C10.941 15.2377 10.4658 15.042 10.0745 14.6507C9.68317 14.2594 9.48751 13.7842 9.48751 13.2252C9.48751 12.6662 9.68317 12.191 10.0745 11.7997C10.4658 11.4084 10.941 11.2127 11.5 11.2127C12.059 11.2127 12.5342 11.4084 12.9255 11.7997C13.3169 12.191 13.5125 12.6662 13.5125 13.2252C13.5125 13.7842 13.3169 14.2594 12.9255 14.6507C12.5342 15.042 12.059 15.2377 11.5 15.2377ZM9.20001 6.9002H13.8L14.5188 5.1752H8.48126L9.20001 6.9002ZM8.36147 17.8252H14.6386C15.517 17.8252 16.2677 17.5137 16.8906 16.8908C17.5136 16.2679 17.825 15.5172 17.825 14.6387C17.825 14.2714 17.7651 13.92 17.6453 13.5846C17.5255 13.2492 17.3538 12.9377 17.1302 12.6502L13.9677 8.6252H9.0323L5.8698 12.6502C5.64619 12.9377 5.47449 13.2492 5.3547 13.5846C5.23491 13.92 5.17501 14.2714 5.17501 14.6387C5.17501 15.5172 5.48647 16.2679 6.10939 16.8908C6.7323 17.5137 7.483 17.8252 8.36147 17.8252Z" fill="black"/>
</svg>
