<?xml version="1.0" encoding="UTF-8" standalone="no"?>
<svg
   version="1.1"
   width="779.53"
   height="595.28"
   viewBox="0 0 779.53 595.28"
   id="svg11"
   sodipodi:docname="Radolfzell_1200_Jahre_Logo_small.svg"
   inkscape:version="1.4 (86a8ad7, 2024-10-11)"
   xmlns:inkscape="http://www.inkscape.org/namespaces/inkscape"
   xmlns:sodipodi="http://sodipodi.sourceforge.net/DTD/sodipodi-0.dtd"
   xmlns="http://www.w3.org/2000/svg"
   xmlns:svg="http://www.w3.org/2000/svg">
  <defs
     id="defs11" />
  <sodipodi:namedview
     id="namedview11"
     pagecolor="#505050"
     bordercolor="#eeeeee"
     borderopacity="1"
     inkscape:showpageshadow="0"
     inkscape:pageopacity="0"
     inkscape:pagecheckerboard="0"
     inkscape:deskcolor="#505050"
     inkscape:zoom="1.8999462"
     inkscape:cx="390.01105"
     inkscape:cy="297.64001"
     inkscape:window-width="3440"
     inkscape:window-height="1351"
     inkscape:window-x="-9"
     inkscape:window-y="-9"
     inkscape:window-maximized="1"
     inkscape:current-layer="svg11" />
  <path
     d="m 209.80997,418.59281 c -3.06316,-15.39858 -15.11708,-23.66733 -30.29349,-20.50886 l -3.22873,0.67177 v 14.80584 c 2.98451,-0.44314 5.52747,-0.525 7.15564,-0.25967 4.37258,0.66754 7.22324,4.01653 8.30225,9.44294 0.72853,3.66089 0.12142,7.63508 -1.57435,10.09073 -1.91654,2.63346 -4.97418,5.44193 -12.37818,6.98306 l -1.50536,0.31331 c 0,0 0,3.83729 0,11.03346 5.81999,0 27.86504,18.89436 33.12759,25.02077 l 10.24087,-12.51109 c -9.6172,-10.53105 -21.47795,-16.76331 -24.152,-16.87056 10.56098,-2.46129 16.91634,-15.0867 14.30576,-28.2117"
     fill="#3b4ea3"
     id="path1"
     style="stroke-width:0.139546" />
  <path
     d="m 169.80959,415.91983 -17.1233,3.21069 v 67.38205 h 17.1233 v -70.59274"
     fill="#3b4ea3"
     id="path2"
     style="stroke-width:0.139546" />
  <path
     d="m 282.66059,479.32769 c -5.64476,-4.3623 -6.147,-7.44174 -6.02144,-14.6252 l 0.37668,-22.06835 c 0.12556,-7.05645 -0.25112,-9.10846 -1.12867,-11.80262 -2.50848,-7.3133 -9.90972,-11.41875 -20.69699,-11.41875 -5.89588,0 -11.28951,1.15444 -17.5607,3.84859 -4.51608,1.925 -7.02455,3.20787 -10.41196,5.38831 l 7.15012,12.31633 c 6.89899,-4.74617 13.17018,-7.44032 18.56381,-7.44032 6.14701,0 7.52681,2.43729 7.52681,9.7506 v 2.69415 c -1.3798,-0.12842 -2.50848,-0.12842 -3.76272,-0.12842 -20.44586,0 -30.85782,7.18487 -30.85782,22.58064 0,13.08689 7.77793,20.52721 22.07678,20.52721 5.26808,0 9.78416,-1.28286 12.92044,-3.59173 1.25424,-0.89899 2.63404,-2.18185 3.88827,-3.46472 1.63093,3.33629 5.14251,6.2873 9.03079,7.95545 z m -22.45347,-21.55464 -0.25112,14.1129 c -2.50848,2.82259 -5.64476,4.49073 -8.77966,4.49073 -4.26496,0 -7.40124,-3.46331 -7.40124,-8.59617 0,-7.8256 4.01383,-10.00746 15.68003,-10.00746 z m 87.12603,28.73952 c -1.12868,-2.56573 -2.38292,-7.82561 -2.38292,-23.99194 v -68.25422 l -16.68315,-2.69416 v 22.58065 c 0,3.84858 0.25113,8.33931 0.50225,9.7506 -3.13628,-2.56573 -6.77343,-3.72157 -11.41507,-3.72157 -16.30647,0 -27.47042,14.1129 -27.47042,34.64153 0,20.39878 10.28502,33.35725 26.59286,33.35725 5.76894,0 10.66171,-1.79657 14.80111,-5.51673 0.25112,1.79516 0.50086,2.82258 1.00311,3.84859 z m -18.81494,-17.06391 c -1.63092,2.05342 -5.14251,4.23387 -8.2788,4.23387 -8.78104,0 -11.6662,-4.61916 -11.6662,-18.73065 0,-14.62661 3.26185,-21.04092 10.78727,-21.04092 3.01072,0 6.02145,1.41129 9.15773,4.23387 z m 87.40198,-16.03649 c 0,-10.6496 -2.25735,-17.83448 -7.40124,-23.99194 -5.51919,-6.67117 -12.66793,-9.87903 -21.82566,-9.87903 -17.30958,0 -28.85021,13.72762 -28.85021,34.38326 0,20.65565 11.41507,33.9994 28.85021,33.9994 9.90972,0 16.30647,-3.46472 21.19923,-9.10988 5.5192,-6.41432 8.02767,-14.11149 8.02767,-25.40181 z m -18.31407,-0.12843 c 0,15.52419 -3.1349,22.19536 -10.41058,22.19536 -3.26185,0 -7.02456,-1.79657 -8.52992,-5.38831 -1.3798,-3.33629 -2.13179,-8.98145 -2.13179,-16.5502 0,-6.54415 0.62643,-11.1633 1.75511,-14.62661 1.3798,-4.10544 4.64164,-6.67117 8.65547,-6.67117 3.01073,0 5.64476,1.28287 7.27568,3.46331 2.25736,2.95101 3.38603,8.7246 3.38603,17.57762 z m 57.68802,32.97197 -2.88516,-10.26431 c -0.87756,0.25685 -1.25424,0.25685 -1.88205,0.25685 -1.3798,0 -2.7596,-0.64072 -3.38603,-1.79516 -1.00311,-1.79657 -1.12867,-3.33629 -1.12867,-14.62661 v -51.19032 c 0,-9.2383 -0.25113,-13.47217 -0.87893,-17.06391 l -17.18402,3.97702 c 0.62643,5.90201 0.87755,11.16189 0.87755,19.75806 v 49.00988 c 0,9.36532 0.25113,11.41874 1.50536,14.75362 2.00761,5.51674 7.77655,8.98145 14.92667,8.98145 3.63853,0 7.15012,-0.64213 10.03528,-1.79657 z m 47.70654,-90.70644 c -5.14389,-2.95101 -9.65859,-4.10544 -15.17778,-4.10544 -13.17157,0 -20.69699,7.44173 -20.69699,20.39878 0,2.95101 0.25112,6.2873 0.62643,8.98145 h -6.14562 v 11.80262 h 5.77031 v 53.88589 h 16.43203 V 432.62668 H 495.725 l 4.26496,-11.80262 H 483.6835 v -9.36532 c 0,-4.74758 2.7596,-7.44173 7.02456,-7.44173 2.00622,0 3.26046,0.38528 6.89899,2.18044 z m 52.41857,79.03084 h -29.47803 l 28.34935,-41.95343 v -11.80262 h -47.66653 v 12.05948 h 27.72154 l -30.23002,42.98084 v 10.64819 h 47.28985 z m 62.85398,-15.52278 v -3.97843 c 0,-13.72762 -2.63404,-22.57923 -8.52992,-28.7381 -4.1394,-4.3623 -11.16395,-6.92803 -18.56381,-6.92803 -8.52992,0 -14.92667,2.82258 -20.19612,8.85303 -5.64338,6.41431 -8.02767,14.23992 -8.02767,26.04395 0,20.65564 11.91732,33.99939 30.35557,33.99939 9.03217,0 16.80872,-2.95101 24.20858,-9.10988 l -6.52231,-10.26431 c -5.14251,4.36229 -10.53615,6.54415 -16.30647,6.54415 -8.65548,0 -13.54686,-5.77359 -13.54686,-15.90947 v -0.5123 z m -17.43514,-12.57319 h -19.44275 v -0.25685 c 0,-9.10988 3.63715,-14.24133 10.03528,-14.24133 3.38603,0 5.76894,1.28286 7.39986,3.84859 1.50536,2.43729 2.00761,5.00443 2.00761,9.87903 z m 56.43102,39.77157 -2.88378,-10.26431 c -0.87894,0.25685 -1.25562,0.25685 -1.88205,0.25685 -1.3798,0 -2.7596,-0.64072 -3.38741,-1.79516 -1.00311,-1.79657 -1.12867,-3.33629 -1.12867,-14.62661 v -51.19032 c 0,-9.2383 -0.25113,-13.47217 -0.87755,-17.06391 l -17.1854,3.97702 c 0.62781,5.90201 0.87893,11.16189 0.87893,19.75806 v 49.00988 c 0,9.36532 0.25113,11.41874 1.50536,14.75362 2.00623,5.51674 7.77655,8.98145 14.92667,8.98145 3.63715,0 7.15012,-0.64213 10.0339,-1.79657 z m 35.13382,0 -2.88516,-10.26431 c -0.87894,0.25685 -1.25424,0.25685 -1.88205,0.25685 -1.3798,0 -2.7596,-0.64072 -3.38603,-1.79516 -1.00449,-1.79657 -1.13005,-3.33629 -1.13005,-14.62661 v -51.19032 c 0,-9.2383 -0.24975,-13.47217 -0.87755,-17.06391 l -17.18402,3.97702 c 0.62643,5.90201 0.87755,11.16189 0.87755,19.75806 v 49.00988 c 0,9.36532 0.25113,11.41874 1.50536,14.75362 2.00623,5.51674 7.77655,8.98145 14.92667,8.98145 3.63715,0 7.15012,-0.64213 10.03528,-1.79657"
     fill="#3b4ea3"
     id="path3"
     style="stroke-width:0.139546" />
  <path
     d="m 152.04192,247.1888 v 65.47398 L 285.18286,347.2154 V 291.34383 L 215.00629,274.5523 c -35.97688,-13.99858 -62.96437,-27.3635 -62.96437,-27.3635"
     fill="#6c7aba"
     id="path4"
     style="stroke-width:0.139546" />
  <path
     d="m 129.90719,185.21905 -9.8973,3.85846 v -0.0917 l -54.790433,21.36834 v 7.84395 h 9.897298 V 372.91076 H 129.90719 V 185.21905"
     fill="#c70d56"
     id="path5"
     style="stroke-width:0.139546" />
  <path
     d="m 612.71954,245.21723 c -3.92001,-63.66472 -41.71133,-104.5131 -100.42039,-104.5131 -59.81842,0 -100.993,46.34112 -101.16686,116.10402 h -0.0331 c 10e-4,0.2371 0.0152,0.43468 0.0152,0.67319 0,45.70463 -14.83146,50.9885 -26.29069,50.9885 -9.16186,0 -26.16512,-0.0409 -26.32104,-51.66169 0,0 -61.637,13.4002 -61.637,11.86331 4.34223,51.18749 37.89756,83.61894 87.95804,83.61894 52.99946,0 88.63277,-38.36028 88.77627,-95.48225 h 0.0262 c 0,-0.30201 -0.0152,-0.56593 -0.0152,-0.87076 0,-43.91936 9.77863,-72.61794 38.68818,-72.61794 21.57454,0 38.08383,12.95564 38.24803,73.4887 0,0 62.49385,-10.31088 62.17236,-11.59092"
     fill="#3b4ea3"
     id="path6"
     style="stroke-width:0.139546" />
  <path
     d="m 435.34914,337.64544 c 17.48205,22.39294 43.67892,35.26532 76.50847,35.26532 59.94399,0 101.18342,-46.52741 101.18342,-116.5387 0,-3.78931 -0.16558,-7.47419 -0.3891,-11.11814 -0.49949,1.38871 -62.10475,11.55423 -62.10475,11.55423 0,0 0.15591,0.97803 -10e-4,0.86936 0,43.91935 -9.77864,72.61793 -38.68819,72.61793 -21.57453,0 -38.08383,-12.95564 -38.24802,-73.48729 h -0.01 c -0.0911,36.1008 -14.38441,64.67237 -38.25079,80.83729"
     fill="#fec61a"
     id="path7"
     style="stroke-width:0.139546" />
  <path
     d="m 411.11297,257.48134 c 0,-0.23851 -0.0124,-0.43609 -0.0138,-0.67319 h 0.0331 c 0.0828,-33.14697 9.50682,-60.91128 25.70428,-81.02499 -0.0828,0.10443 -0.18076,0.19193 -0.26493,0.29637 -13.94286,-9.5375 -31.34765,-14.75504 -51.41268,-14.75504 -53.10709,0 -88.78869,38.50847 -88.78869,95.82096 0,3.94738 0.19593,7.77903 0.51467,11.53024 0.20421,1.48186 61.41209,-11.82379 61.60112,-11.8633 -10e-4,-0.23992 -0.0152,-0.43892 -0.0152,-0.68025 0,-45.70463 15.2316,-50.99132 26.68808,-50.99132 9.20739,0 25.93746,0 25.93746,52.34052"
     fill="#f18b70"
     id="path8"
     style="stroke-width:0.139546" />
  <path
     d="m 273.77469,182.66038 c 0,-40.93024 -21.35515,-77.36834 -65.28243,-82.33749 -21.64767,-2.447181 -39.89689,2.98346 -56.47655,14.24697 l 0.0662,59.36028 c 14.33611,-6.89416 31.27314,-14.22581 45.10287,-11.11956 13.09153,2.94113 19.36133,13.92097 19.36133,30.86209 0,41.26048 -64.50422,53.51613 -64.50422,53.51613 0,0 0,26.1625 0,42.14677 69.61224,0 121.73277,-46.00383 121.73277,-106.67519"
     fill="#3b4ea3"
     id="path9"
     style="stroke-width:0.139546" />
</svg>
