<svg xmlns="http://www.w3.org/2000/svg" xmlns:xlink="http://www.w3.org/1999/xlink" xmlns:inkscape="http://www.inkscape.org/namespaces/inkscape" version="1.1" width="779.53" height="595.28" viewBox="0 0 779.53 595.28">
<path transform="matrix(.1,0,0,-.1,0,595.28)" d="M2615.92 2511.87C2593.72 2620.98 2506.36 2679.57 2396.37 2657.19L2372.97
    2652.43V2547.52C2394.6 2550.66 2413.03 2551.24 2424.83 2549.36 2456.52 2544.63
    2477.18 2520.9 2485 2482.45 2490.28 2456.51 2485.88 2428.35 2473.59 2410.95
    2459.7 2392.29 2437.54 2372.39 2383.88 2361.47L2372.97 2359.25C2372.97 2359.25
    2372.97 2332.06 2372.97 2281.07 2415.15 2281.07 2574.92 2147.19 2613.06
    2103.78L2687.28 2192.43C2617.58 2267.05 2531.62 2311.21 2512.24 2311.97 2588.78
    2329.41 2634.84 2418.87 2615.92 2511.87" fill="#3b4ea3"/>
<path transform="matrix(.1,0,0,-.1,0,595.28)" d="M2326.02 2530.81 2201.92 2508.06V2030.61H2326.02V2530.81" fill="#3b4ea3"/>
<path transform="matrix(.1,0,0,-.1,0,595.28)" d="M3143.9 2081.52C3102.99 2112.43 3099.35 2134.25 3100.26 2185.15L3102.99
    2341.52C3103.9 2391.52 3101.17 2406.06 3094.81 2425.15 3076.63 2476.97 3022.99
    2506.06 2944.81 2506.06 2902.08 2506.06 2862.99 2497.88 2817.54 2478.79 2784.81
    2465.15 2766.63 2456.06 2742.08 2440.61L2793.9 2353.34C2843.9 2386.97 2889.35
    2406.06 2928.44 2406.06 2972.99 2406.06 2982.99 2388.79 2982.99
    2336.97V2317.88C2972.99 2318.79 2964.81 2318.79 2955.72 2318.79 2807.54 2318.79
    2732.08 2267.88 2732.08 2158.79 2732.08 2066.06 2788.45 2013.34 2892.08 2013.34
    2930.26 2013.34 2962.99 2022.43 2985.72 2038.79 2994.81 2045.16 3004.81 2054.25
    3013.9 2063.34 3025.72 2039.7 3051.17 2018.79 3079.35 2006.97L3143.9
    2081.52ZM2981.17 2234.25 2979.35 2134.25C2961.17 2114.25 2938.44 2102.43 2915.72
    2102.43 2884.81 2102.43 2862.08 2126.97 2862.08 2163.34 2862.08 2218.79 2891.17
    2234.25 2975.72 2234.25H2981.17ZM3612.61 2030.61C3604.43 2048.79 3595.34 2086.06
    3595.34 2200.61V2684.24L3474.43 2703.33V2543.33C3474.43 2516.06 3476.25 2484.24
    3478.07 2474.24 3455.34 2492.42 3428.98 2500.61 3395.34 2500.61 3277.16 2500.61
    3196.25 2400.61 3196.25 2255.15 3196.25 2110.61 3270.79 2018.79 3388.98 2018.79
    3430.79 2018.79 3466.25 2031.52 3496.25 2057.88 3498.07 2045.16 3499.88 2037.88
    3503.52 2030.61H3612.61ZM3476.25 2151.52C3464.43 2136.97 3438.98 2121.52 3416.25
    2121.52 3352.61 2121.52 3331.7 2154.25 3331.7 2254.24 3331.7 2357.88 3355.34
    2403.33 3409.88 2403.33 3431.7 2403.33 3453.52 2393.33 3476.25
    2373.33V2151.52ZM4109.69 2265.15C4109.69 2340.61 4093.33 2391.52 4056.05 2435.15
    4016.05 2482.42 3964.24 2505.15 3897.87 2505.15 3772.42 2505.15 3688.78 2407.88
    3688.78 2261.52 3688.78 2115.16 3771.51 2020.61 3897.87 2020.61 3969.69 2020.61
    4016.05 2045.16 4051.51 2085.16 4091.51 2130.61 4109.69 2185.15 4109.69
    2265.15ZM3976.96 2266.06C3976.96 2156.06 3954.24 2108.79 3901.51 2108.79 3877.87
    2108.79 3850.6 2121.52 3839.69 2146.97 3829.69 2170.61 3824.24 2210.61 3824.24
    2264.24 3824.24 2310.61 3828.78 2343.34 3836.96 2367.88 3846.96 2396.97 3870.6
    2415.15 3899.69 2415.15 3921.51 2415.15 3940.6 2406.06 3952.42 2390.61 3968.78
    2369.7 3976.96 2328.79 3976.96 2266.06ZM4395.05 2032.43 4374.14 2105.16C4367.78
    2103.34 4365.05 2103.34 4360.5 2103.34 4350.5 2103.34 4340.5 2107.88 4335.96
    2116.06 4328.69 2128.79 4327.78 2139.7 4327.78 2219.7V2582.42C4327.78 2647.88
    4325.96 2677.88 4321.41 2703.33L4196.87 2675.15C4201.41 2633.33 4203.23 2596.06
    4203.23 2535.15V2187.88C4203.23 2121.52 4205.05 2106.97 4214.14 2083.34 4228.69
    2044.25 4270.5 2019.7 4322.32 2019.7 4348.69 2019.7 4374.14 2024.25 4395.05
    2032.43ZM4740.8 2675.15C4703.52 2696.06 4670.8 2704.24 4630.8 2704.24 4535.34
    2704.24 4480.8 2651.51 4480.8 2559.7 4480.8 2538.79 4482.62 2515.15 4485.34
    2496.06H4440.8V2412.43H4482.62V2030.61H4601.71V2412.43H4688.07L4718.98
    2496.06H4600.8V2562.42C4600.8 2596.06 4620.8 2615.15 4651.71 2615.15 4666.25
    2615.15 4675.34 2612.42 4701.71 2599.7L4740.8 2675.15ZM5120.7
    2115.16H4907.06L5112.52 2412.43V2496.06H4767.06V2410.61H4967.97L4748.88
    2106.06V2030.61H5091.61L5120.7 2115.16ZM5576.23 2225.15V2253.34C5576.23 2350.61
    5557.14 2413.33 5514.41 2456.97 5484.41 2487.88 5433.5 2506.06 5379.87 2506.06
    5318.05 2506.06 5271.69 2486.06 5233.5 2443.33 5192.6 2397.88 5175.32 2342.43
    5175.32 2258.79 5175.32 2112.43 5261.69 2017.88 5395.32 2017.88 5460.78 2017.88
    5517.14 2038.79 5570.77 2082.43L5523.5 2155.16C5486.23 2124.25 5447.14 2108.79
    5405.32 2108.79 5342.59 2108.79 5307.14 2149.7 5307.14
    2221.52V2225.15H5576.23ZM5449.87 2314.24H5308.96V2316.06C5308.96 2380.61 5335.32
    2416.97 5381.69 2416.97 5406.23 2416.97 5423.5 2407.88 5435.32 2389.7 5446.23
    2372.43 5449.87 2354.24 5449.87 2319.7V2314.24ZM5858.85 2032.43 5837.95
    2105.16C5831.58 2103.34 5828.85 2103.34 5824.31 2103.34 5814.31 2103.34 5804.31
    2107.88 5799.76 2116.06 5792.49 2128.79 5791.58 2139.7 5791.58
    2219.7V2582.42C5791.58 2647.88 5789.76 2677.88 5785.22 2703.33L5660.67
    2675.15C5665.22 2633.33 5667.04 2596.06 5667.04 2535.15V2187.88C5667.04 2121.52
    5668.86 2106.97 5677.95 2083.34 5692.49 2044.25 5734.31 2019.7 5786.13 2019.7
    5812.49 2019.7 5837.95 2024.25 5858.85 2032.43ZM6113.48 2032.43 6092.57
    2105.16C6086.2 2103.34 6083.48 2103.34 6078.93 2103.34 6068.93 2103.34 6058.93
    2107.88 6054.39 2116.06 6047.11 2128.79 6046.2 2139.7 6046.2
    2219.7V2582.42C6046.2 2647.88 6044.39 2677.88 6039.84 2703.33L5915.3
    2675.15C5919.84 2633.33 5921.66 2596.06 5921.66 2535.15V2187.88C5921.66 2121.52
    5923.48 2106.97 5932.57 2083.34 5947.11 2044.25 5988.93 2019.7 6040.75 2019.7
    6067.11 2019.7 6092.57 2024.25 6113.48 2032.43" fill="#3b4ea3"/>
<path transform="matrix(.1,0,0,-.1,0,595.28)" d="M2197.25 3726.39V3262.46L3162.18 3017.63V3413.52L2653.58 3532.5C2392.84 3631.69
    2197.25 3726.39 2197.25 3726.39" fill="#6c7aba"/>
<path transform="matrix(.1,0,0,-.1,0,595.28)" d="M2036.83 4165.49 1965.1 4138.15V4138.8L1568.01
    3987.39V3931.81H1639.74V2835.56H2036.83V4165.49" fill="#c70d56"/>
<path transform="matrix(.1,0,0,-.1,0,595.28)" d="M5535.98 3740.36C5507.57 4191.47 5233.68 4480.91 4808.19 4480.91 4374.66
    4480.91 4076.25 4152.55 4074.99 3658.23H4074.75C4074.76 3656.55 4074.86 3655.15
    4074.86 3653.46 4074.86 3329.61 3967.37 3292.17 3884.32 3292.17 3817.92 3292.17
    3694.69 3292.46 3693.56 3658.23 3693.56 3658.23 3246.85 3563.28 3246.85 3574.17
    3278.32 3211.47 3521.51 2981.67 3884.32 2981.67 4268.43 2981.67 4526.68 3253.48
    4527.72 3658.23H4527.91C4527.91 3660.37 4527.8 3662.24 4527.8 3664.4 4527.8
    3975.6 4598.67 4178.95 4808.19 4178.95 4964.55 4178.95 5084.2 4087.15 5085.39
    3658.23 5085.39 3658.23 5538.31 3731.29 5535.98 3740.36" fill="#3b4ea3"/>
<path transform="matrix(.1,0,0,-.1,0,595.28)" d="M4250.5 3085.44C4377.2 2926.77 4567.06 2835.56 4804.99 2835.56 5239.43 2835.56
    5538.31 3165.24 5538.31 3661.32 5538.31 3688.17 5537.11 3714.28 5535.49 3740.1
    5531.87 3730.26 5085.39 3658.23 5085.39 3658.23 5085.39 3658.23 5086.52 3651.3
    5085.38 3652.07 5085.38 3340.87 5014.51 3137.52 4804.99 3137.52 4648.63 3137.52
    4528.98 3229.32 4527.79 3658.23H4527.72C4527.06 3402.43 4423.47 3199.98 4250.5
    3085.44" fill="#fec61a"/>
<path transform="matrix(.1,0,0,-.1,0,595.28)" d="M4074.85 3653.46C4074.85 3655.15 4074.76 3656.55 4074.75
    3658.23H4074.99C4075.59 3893.1 4143.89 4089.83 4261.28 4232.35 4260.68 4231.61
    4259.97 4230.99 4259.36 4230.25 4158.31 4297.83 4032.17 4334.8 3886.75 4334.8
    3501.86 4334.8 3243.26 4061.94 3243.26 3655.84 3243.26 3627.87 3244.68 3600.72
    3246.99 3574.14 3248.47 3563.64 3692.07 3657.92 3693.44 3658.2 3693.43 3659.9
    3693.33 3661.31 3693.33 3663.02 3693.33 3986.87 3803.72 4024.33 3886.75 4024.33
    3953.48 4024.33 4074.73 4024.33 4074.73 3653.46" fill="#f18b70"/>
<path transform="matrix(.1,0,0,-.1,0,595.28)" d="M3079.5 4183.62C3079.5 4473.64 2924.73 4731.83 2606.37 4767.04 2449.48 4784.38
    2317.22 4745.9 2197.06 4666.09L2197.54 4245.48C2301.44 4294.33 2424.19 4346.28
    2524.42 4324.27 2619.3 4303.43 2664.74 4225.63 2664.74 4105.59 2664.74 3813.23
    2197.25 3726.39 2197.25 3726.39 2197.25 3726.39 2197.25 3541.01 2197.25 3427.75
    2701.76 3427.75 3079.5 3753.72 3079.5 4183.62" fill="#3b4ea3"/>
<path transform="matrix(.1,0,0,-.1,0,595.28)" d="M5948.56 3265.59H5751.17V3215.57H5953.85C5980.29 3215.57 5990.16 3214.51
    5998.97 3210.63 6008.84 3206.4 6020.82 3194.77 6028.58 3182.08L6053.96
    3204.99C6045.5 3227.19 6026.46 3255.02 5996.5 3262.06 5986.63 3264.53 5980.29
    3265.59 5948.56 3265.59ZM5996.14 3510.54 5750.47 3433.34V3380.11L5996.14
    3299.73V3351.2L5937.97 3368.47V3440.39L5996.14 3457.66V3510.54ZM5897.12
    3428.4V3380.46C5880.91 3385.75 5869.27 3388.92 5851.65 3393.5 5835.43 3397.73
    5810.05 3403.73 5804.41 3405.14L5847.77 3415.01C5864.69 3418.89 5891.83 3426.64
    5897.12 3428.4ZM5996.14
    3715.45H5751.17V3665.43H5846.36V3594.88H5751.17V3545.92H5996.14V3594.88H5886.85V3665.43H5996.14V3715.45ZM5996.14
    3953.09C5980.63 3944.27 5916.82 3906.93 5900.96 3894.25 5896.73 3891.08 5894.61
    3888.97 5890.73 3884.03 5890.03 3914.33 5859.71 3938.63 5823.05 3938.63 5780.05
    3938.63 5751.17 3910.1 5751.17 3866.75V3775.45H5996.14V3823.71H5893.91C5894.26
    3826.88 5894.96 3829 5896.02 3831.47 5899.9 3840.29 5911.88 3847.7 5955.95
    3872.04 5973.23 3881.56 5979.92 3885.44 5996.14 3894.96V3953.09ZM5824.1
    3886.85C5834.33 3886.85 5843.14 3883.33 5848.78 3877.33 5854.77 3870.63 5856.89
    3861.45 5856.89 3840.29V3823.71H5790.61V3841.35C5790.61 3853.34 5792.02 3863.57
    5794.14 3869.22 5798.37 3880.86 5808.94 3886.85 5824.1 3886.85ZM5996.14
    4134.39H5953.88V4041.67H5888.26V4111.12H5848.12V4041.67H5791.32V4124.87L5751.17
    4131.22V3991.66H5996.14V4134.39" fill="#3b4ea3"/>
<path transform="matrix(.1,0,0,-.1,0,595.28)" d="M5978.81 1231.15C5901.83 1231.15 5857.68 1258.26 5857.68 1305.52 5857.68 1316.1
    5859.52 1325.16 5864.04 1336.81L5864.35 1337.61 5900.24 1340.75 5899.03
    1338.52C5897.19 1335.11 5891.2 1323.08 5891.2 1311.22 5891.2 1295.21 5897.88
    1281.84 5910 1273.57 5925.75 1263.66 5948.58 1258.41 5975.96 1258.41 6028.38
    1258.41 6053.87 1277.55 6053.87 1316.92 6053.87 1333.35 6048.33 1346.19 6037.86
    1354.05 6026.9 1362.57 6007.41 1366.89 5979.95 1366.89 5969.95 1366.89 5957.02
    1366.49 5946.64 1366.16 5939.19 1365.94 5932.76 1365.75 5929.19 1365.75 5895.58
    1365.75 5877.07 1379.19 5877.07 1403.61 5877.07 1424.78 5894.05 1440.48 5928.94
    1451.48 5891.11 1463.38 5865.09 1496.56 5865.09 1533.65 5865.09 1591.09 5906.44
    1629.69 5967.97 1629.69 5989.76 1629.69 6002.52 1625.29 6014.85 1621.03 6025.76
    1617.28 6036.05 1613.72 6051.8 1613.72 6065.84 1613.72 6076.49 1617.33 6089.81
    1626.59L6090.76 1627.25 6111.48 1605.91 6110.23 1604.97C6094.65 1593.44 6081.36
    1588.74 6064.35 1588.74 6058.26 1588.74 6052.94 1589.31 6048.26 1590.49 6061.95
    1575.88 6069.14 1557.33 6069.14 1536.5 6069.14 1502.06 6053.3 1473.36 6025.68
    1457.75 6010.96 1449.63 5991.11 1445.41 5969.88 1446.15 5931.39 1433.1 5913.45
    1421.38 5913.45 1409.31 5913.45 1399.53 5923.1 1394.15 5940.6 1394.15 5941.6
    1394.15 5947.09 1394.22 5954.22 1394.31 5967.71 1394.48 5986.19 1394.71 5992.5
    1394.71 6024.39 1394.71 6043.95 1390.19 6060 1379.07 6080.07 1365.51 6090.24
    1345.56 6090.24 1319.78 6090.24 1261.8 6051.71 1231.15 5978.81 1231.15ZM4674.37
    1330.39C4656.72 1330.39 4645.51 1335.99 4637.71 1340.87 4622.11 1350.11 4614.83
    1367.15 4614.83 1394.49V1598.43H4577.75V1624.55H4614.83C4614.93 1653.53 4618.24
    1690.06 4619.4 1696.44L4619.57 1697.35 4655.8 1704.83 4655.14 1702.63C4653.62
    1697.54 4649.05 1661.96 4648.94 1624.55H4719.76L4708.92
    1598.43H4647.79V1402.47C4647.79 1370.22 4658.47 1357.07 4684.63 1357.07 4696.39
    1357.07 4705.08 1358.91 4713.68 1363.21L4715.25 1363.99 4720.41 1340.71 4719.45
    1340.23C4705.87 1333.42 4691.95 1330.39 4674.37 1330.39ZM2852.09 1330.39C2834.44
    1330.39 2823.22 1335.99 2815.42 1340.87 2799.82 1350.11 2792.55 1367.15 2792.55
    1394.49V1598.43H2755.47V1624.55H2792.55C2792.65 1653.55 2795.96 1690.07 2797.12
    1696.44L2797.29 1697.35 2833.53 1704.83 2832.87 1702.63C2831.34 1697.53 2826.76
    1661.93 2826.65 1624.55H2897.48L2886.65 1598.43H2825.51V1402.47C2825.51 1370.22
    2836.19 1357.07 2862.35 1357.07 2874.11 1357.07 2882.8 1358.91 2891.4
    1363.21L2892.97 1363.99 2898.14 1340.71 2897.18 1340.23C2883.58 1333.42 2869.67
    1330.39 2852.09 1330.39ZM2105.21 1330.96C2069.46 1330.96 2032.29 1341.28 2005.8
    1358.56L2004.75 1359.24 2018 1384.48 2019.26 1383.67C2045.08 1367.02 2075.4
    1358.21 2106.92 1358.21 2146.28 1358.21 2171.71 1380.29 2171.71 1414.45 2171.71
    1442.87 2155.56 1459.48 2120.9 1466.72L2085.56 1473.56C2040.34 1482.96 2015.44
    1509.96 2015.44 1549.62 2015.44 1599.22 2054.03 1632.54 2111.48 1632.54 2140.81
    1632.54 2170.6 1624.36 2193.19 1610.08L2194.28 1609.4 2180.45 1584.24 2179.24
    1584.92C2154.79 1598.81 2132.9 1605.28 2110.34 1605.28 2073.75 1605.28 2050.11
    1584.77 2050.11 1553.04 2050.11 1526.9 2064.38 1512.18 2096.37 1505.33L2132.85
    1497.92C2182.72 1487.51 2206.95 1462.07 2206.95 1420.16 2206.95 1366.8 2166.06
    1330.96 2105.21 1330.96ZM6428.32 1331.53C6412.15 1331.53 6399.01 1344.68 6399.01
    1360.84 6399.01 1376.96 6411.38 1389.58 6427.19 1389.58 6443.89 1389.58 6456.49
    1377.23 6456.49 1360.84 6456.49 1344.95 6443.59 1331.53 6428.32 1331.53ZM5532.6
    1331.53C5493.04 1331.53 5460.03 1348.56 5439.63 1379.48 5422.07 1405.8 5413.17
    1440.4 5413.17 1482.32 5413.17 1525.51 5423.8 1563.48 5443.1 1589.22 5455.01
    1604.97 5482.33 1631.4 5531.45 1631.4 5585.18 1631.4 5613.48 1600.64 5625.56
    1582.3 5642.6 1556.46 5650.88 1522.46 5650.88 1478.33 5650.88 1441.34 5643.53
    1410.03 5629.02 1385.24 5609.79 1351.11 5574.64 1331.53 5532.6 1331.53ZM4792.59
    1331.53C4776.42 1331.53 4763.27 1344.68 4763.27 1360.84 4763.27 1376.96 4775.64
    1389.58 4791.45 1389.58 4808.15 1389.58 4820.75 1377.23 4820.75 1360.84 4820.75
    1344.95 4807.86 1331.53 4792.59 1331.53ZM3675.77 1331.53C3659.61 1331.53 3646.46
    1344.68 3646.46 1360.84 3646.46 1376.96 3658.83 1389.58 3674.63 1389.58 3691.34
    1389.58 3703.95 1377.23 3703.95 1360.84 3703.95 1344.95 3691.05 1331.53 3675.77
    1331.53ZM6252.15 1332.1C6176.73 1332.1 6129.88 1390.1 6129.88 1483.46 6129.88
    1531 6140.36 1564.52 6163.85 1592.14 6185.68 1617.81 6213.08 1630.83 6245.31
    1630.83 6280.68 1630.83 6304.13 1614.79 6317.57 1601.34 6338.42 1579.39 6350.48
    1553.64 6350.48 1486.88V1479.24H6167.97V1465.78C6168.51 1437.55 6175.11 1412.7
    6186.56 1395.83 6201.7 1373.41 6227.23 1361.07 6258.43 1361.07 6287.49 1361.07
    6310.69 1369.35 6329.37 1386.37L6330.57 1387.48 6344.63 1365.13 6343.72
    1364.36C6318.74 1342.96 6287.93 1332.1 6252.15 1332.1ZM4332.35 1332.1C4256.93
    1332.1 4210.08 1390.1 4210.08 1483.46 4210.08 1531.02 4220.55 1564.53 4244.05
    1592.14 4265.88 1617.81 4293.28 1630.83 4325.51 1630.83 4360.87 1630.83 4384.32
    1614.79 4397.76 1601.34 4418.62 1579.39 4430.67 1553.63 4430.67
    1486.88V1479.24H4248.17V1465.78C4248.7 1437.55 4255.31 1412.7 4266.76 1395.83
    4281.89 1373.41 4307.41 1361.07 4338.62 1361.07 4367.69 1361.07 4390.89 1369.35
    4409.56 1386.37L4410.77 1387.48 4424.82 1365.13 4423.92 1364.36C4398.94 1342.96
    4368.13 1332.1 4332.35 1332.1ZM3042.33 1332.1C2966.91 1332.1 2920.06 1390.1
    2920.06 1483.46 2920.06 1531 2930.54 1564.52 2954.03 1592.14 2975.85 1617.81
    3003.26 1630.83 3035.49 1630.83 3070.86 1630.83 3094.31 1614.79 3107.75 1601.34
    3128.6 1579.4 3140.66 1553.66 3140.66 1486.88V1479.24H2958.15V1465.78C2958.69
    1437.57 2965.28 1412.72 2976.74 1395.83 2991.88 1373.41 3017.4 1361.07 3048.61
    1361.07 3077.68 1361.07 3100.88 1369.35 3119.54 1386.37L3120.75 1387.48 3134.8
    1365.13 3133.9 1364.36C3108.93 1342.96 3078.13 1332.1 3042.33 1332.1ZM2369.26
    1332.1C2329.93 1332.1 2299.81 1347.07 2279.73 1376.61 2261.91 1403.33 2253.25
    1436.41 2253.25 1477.76 2253.25 1546.23 2275.09 1577.93 2294.13 1597.9 2316.3
    1620.07 2341.06 1630.83 2369.83 1630.83 2407.35 1630.83 2429.41 1615.37 2446.03
    1600.24L2446.98 1599.38 2428.18 1575.58 2427.1 1576.54C2406.87 1594.39 2391.74
    1600.71 2369.26 1600.71 2345.97 1600.71 2324.65 1589.43 2312.24 1570.53 2297.24
    1548.36 2289.65 1515.04 2289.65 1471.48 2289.65 1400.59 2319.08 1359.92 2370.41
    1359.92 2394.85 1359.92 2416.97 1370.61 2434.37 1390.82L2435.42 1392.03 2454.37
    1369.92 2453.51 1369.02C2428.79 1343.14 2403.6 1332.1 2369.26 1332.1ZM1879.42
    1332.1C1804 1332.1 1757.15 1390.1 1757.15 1483.46 1757.15 1531.01 1767.62
    1564.53 1791.12 1592.14 1812.94 1617.81 1840.35 1630.83 1872.58 1630.83 1907.94
    1630.83 1931.39 1614.79 1944.84 1601.34 1965.69 1579.39 1977.75 1553.64 1977.75
    1486.88V1479.24H1795.25V1465.78C1795.78 1437.56 1802.38 1412.71 1813.83 1395.83
    1828.96 1373.41 1854.48 1361.07 1885.69 1361.07 1914.76 1361.07 1937.97 1369.35
    1956.64 1386.37L1957.85 1387.48 1971.89 1365.13 1970.99 1364.36C1946.01 1342.96
    1915.21 1332.1 1879.42 1332.1ZM1601.34 1332.1C1550.56 1332.1 1510.1 1349.91
    1481.09 1385.05 1452.49 1420.08 1437.99 1470.07 1437.99 1533.65 1437.99 1602.18
    1454.06 1651.76 1488.55 1689.69 1516.18 1720.27 1551.44 1735.77 1593.35 1735.77
    1634.02 1735.77 1667.51 1724.29 1695.75 1700.65L1696.71 1699.85 1680.96 1677.17
    1679.83 1677.95C1650.23 1698.43 1625.34 1706.79 1593.92 1706.79 1549.39 1706.79
    1512.97 1683.23 1496.52 1643.76 1482.39 1609.61 1475.52 1573.22 1475.52 1532.51
    1475.52 1481.58 1486.31 1435.18 1504.38 1408.36 1523.89 1379.9 1562.13 1362.21
    1604.19 1362.21 1631.29 1362.21 1655.88 1368.27 1673.54
    1379.28V1510.61H1584.28L1577.37 1540.15H1707.08V1360.67L1706.45 1360.26C1678.58
    1342.62 1639.29 1332.1 1601.34 1332.1ZM5749.14 1337.8H5715.61V1563.3C5715.61
    1598.13 5709.33 1614.35 5706.63 1619.71L5705.86 1621.23 5739.3 1629.9 5739.82
    1629.02C5740.79 1627.4 5748.92 1612.99 5748.69 1584.94 5756.57 1595.85 5766.57
    1605.87 5777.2 1613.47 5793.11 1625.53 5809.24 1631.4 5826.48 1631.4 5833.63
    1631.4 5841.72 1629.25 5842.84 1628.16L5843.48 1627.53 5830.12 1592.32 5828.82
    1592.83C5826.11 1593.92 5821.1 1595.01 5816.78 1595.01 5798.62 1595.01 5782.25
    1587.86 5768.13 1573.74 5753.23 1558.83 5749.14 1548.74 5749.14
    1526.8V1337.8ZM5357.7 1337.8H5322.44L5322.33 1339.05 5295.53 1649.88C5295.12
    1654.05 5294.07 1679.35 5293.55 1693.09 5292.97 1690.87 5292.34 1688.37 5291.7
    1685.83 5289.12 1675.66 5285.91 1663 5282.79 1652.46L5190.12
    1337.8H5160.13L5070.86 1643.33C5063.53 1667.93 5060.44 1680.47 5058.4 1688.76
    5058.13 1689.85 5057.88 1690.87 5057.65 1691.83L5054.73 1644.2 5029.53
    1337.8H4995.41L5029.87 1731.78H5079.49L5164.75 1438.79C5169.98 1419.87 5173.79
    1403.25 5175.8 1394.25 5177.58 1403.33 5181.29 1419.56 5186.07 1435.94L5273.06
    1731.78H5322.66L5357.7 1337.8ZM4526.3 1337.8H4491.64V1624.35L4526.3
    1629.92V1337.8ZM4139.81
    1337.8H4104.58V1532.85H3928.23V1337.8H3894.13V1731.78H3928.23V1562.39H4104.58V1731.78H4139.81V1337.8ZM3575.12
    1337.8H3541.59V1539.35C3541.59 1565.74 3537.08 1576.45 3528.76 1586.98 3521.25
    1595.07 3507.43 1600.14 3492.76 1600.14 3466.81 1600.14 3432.2 1582.06 3410.3
    1557.09V1337.8H3377.33V1563.3C3377.33 1595.91 3371.1 1611.09 3367.74
    1619.24L3367.15 1620.68 3399.95 1629.35 3400.46 1628.36C3400.82 1627.64 3409
    1611.03 3409.69 1586.05 3437.82 1615.01 3468.06 1629.69 3499.61 1629.69 3527.89
    1629.69 3552.61 1616.52 3564.12 1595.33 3571.3 1583.95 3575.12 1570.09 3575.12
    1555.32V1337.8ZM3235.44 1337.8H3201.9V1563.3C3201.9 1598.08 3195.63 1614.34
    3192.92 1619.72L3192.17 1621.23 3225.6 1629.9 3226.12 1629.02C3227.09 1627.4
    3235.21 1612.99 3234.98 1584.94 3242.87 1595.85 3252.86 1605.87 3263.5 1613.47
    3279.4 1625.53 3295.53 1631.4 3312.78 1631.4 3319.94 1631.4 3328.03 1629.25
    3329.14 1628.15L3329.77 1627.52 3316.41 1592.32 3315.12 1592.83C3312.4 1593.92
    3307.4 1595.01 3303.08 1595.01 3284.91 1595.01 3268.55 1587.86 3254.43 1573.74
    3239.53 1558.83 3235.44 1548.74 3235.44 1526.8V1337.8ZM2709.85
    1337.8H2676.32V1542.2C2676.32 1562.26 2671.85 1576.9 2663.03 1585.71 2655.19
    1594.17 2641.83 1599 2626.35 1599 2596.84 1599 2565.77 1581.46 2541.04
    1550.85V1337.8H2507.5V1691.63C2507.5 1723.96 2502.22 1744.22 2500.19
    1749.29L2499.58 1750.81 2533.1 1757.63 2533.52 1756.58C2533.6 1756.39 2541.04
    1736.58 2541.04 1690.49V1615.2C2541.04 1605.15 2540.52 1594.93 2540.18 1588.17
    2540.12 1586.99 2540.07 1585.92 2540.02 1584.99 2561.18 1605.95 2593.84 1629.69
    2633.2 1629.69 2681.2 1629.69 2709.85 1598.9 2709.85 1547.33V1337.8ZM5530.89
    1602.99C5497.31 1602.99 5475.22 1584.33 5466.49 1568.35 5455.25 1548.22 5449.55
    1520.81 5449.55 1486.88 5449.55 1447.29 5456.55 1413.25 5468.74 1393.5 5478.24
    1378.01 5500.81 1359.92 5533.17 1359.92 5563.57 1359.92 5587.84 1375.43 5599.78
    1402.47 5610.05 1425.84 5613.36 1443.73 5613.36 1476.05 5613.36 1514.97 5608
    1544.05 5596.98 1564.94 5585.41 1588.07 5559.47 1602.99 5530.89 1602.99ZM5967.4
    1601.28C5925.62 1601.28 5902.62 1577.47 5902.62 1534.22 5902.62 1495.31 5927.44
    1471.14 5967.4 1471.14 6008.07 1471.14 6030.48 1494.15 6030.48 1535.93 6030.48
    1578.08 6008.07 1601.28 5967.4 1601.28ZM6168.03 1505.36H6314.66C6314.52 1535.77
    6309.73 1558.23 6300.03 1573.99 6288.69 1592.51 6267.59 1603.56 6243.59 1603.56
    6199.23 1603.56 6171.04 1566.89 6168.03 1505.36ZM4248.23 1505.36H4394.85C4394.71
    1535.77 4389.93 1558.23 4380.23 1573.99 4368.89 1592.51 4347.8 1603.56 4323.8
    1603.56 4279.43 1603.56 4251.25 1566.89 4248.23 1505.36ZM2958.22
    1505.36H3104.84C3104.7 1535.77 3099.91 1558.23 3090.22 1574 3078.87 1592.51
    3057.77 1603.56 3033.78 1603.56 2989.41 1603.56 2961.23 1566.89 2958.22
    1505.36ZM1795.31 1505.36H1941.92C1941.78 1535.78 1937 1558.24 1927.3 1573.99
    1915.95 1592.51 1894.86 1603.56 1870.87 1603.56 1826.5 1603.56 1798.32 1566.89
    1795.31 1505.36ZM4509.54 1686.26C4495.2 1686.26 4483.09 1698.38 4483.09 1712.73
    4483.09 1727.07 4495.2 1739.19 4509.54 1739.19 4524.38 1739.19 4536.01 1727.56
    4536.01 1712.73 4536.01 1698.38 4523.89 1686.26 4509.54 1686.26" fill="#3b4ea3"/>
</svg>
