<svg viewBox="0 0 28 28" fill="none" xmlns="http://www.w3.org/2000/svg" aria-hidden="true" focusable="false">
  <path d="M17.5 25.6668V23.3335H22.1666V11.6668H5.83329V16.3335H3.49996V7.00016C3.49996 6.3585 3.72843 5.80919 4.18538 5.35225C4.64232 4.8953 5.19163 4.66683 5.83329 4.66683H6.99996V2.3335H9.33329V4.66683H18.6666V2.3335H21V4.66683H22.1666C22.8083 4.66683 23.3576 4.8953 23.8145 5.35225C24.2715 5.80919 24.5 6.3585 24.5 7.00016V23.3335C24.5 23.9752 24.2715 24.5245 23.8145 24.9814C23.3576 25.4384 22.8083 25.6668 22.1666 25.6668H17.5ZM9.33329 28.0002L7.69996 26.3668L10.7041 23.3335H1.16663V21.0002H10.7041L7.69996 17.9668L9.33329 16.3335L15.1666 22.1668L9.33329 28.0002ZM5.83329 9.3335H22.1666V7.00016H5.83329V9.3335Z" fill="currentColor"/>
</svg>
