<svg viewBox="0 0 23 23" fill="none" xmlns="http://www.w3.org/2000/svg" aria-hidden="true" focusable="false">
  <path d="M4.03108 4.3125C3.43276 4.3125 2.91556 4.09787 2.4795 3.66862C2.04343 3.23937 1.8254 2.73025 1.8254 2.14128C1.8254 1.5525 2.04343 1.04838 2.4795 0.628906C2.91556 0.209635 3.43276 0 4.03108 0C4.62921 0 5.14133 0.209635 5.56746 0.628906C5.99339 1.04838 6.20635 1.5525 6.20635 2.14128C6.20635 2.73025 5.99339 3.23937 5.56746 3.66862C5.14133 4.09787 4.62921 4.3125 4.03108 4.3125ZM2.19048 23V15.0938H0V7.90625C0 7.31328 0.218034 6.80566 0.654101 6.3834C1.09017 5.96113 1.60229 5.75 2.19048 5.75H5.84127C6.44365 5.75 6.95933 5.96113 7.38829 6.3834C7.81726 6.80566 8.03175 7.31328 8.03175 7.90625V10.6016C6.87566 11.3403 5.9731 12.2986 5.32407 13.4766C4.67504 14.6545 4.35053 15.9123 4.35053 17.25C4.35053 18.2682 4.54321 19.2415 4.92857 20.1699C5.31393 21.0983 5.86155 21.9418 6.57143 22.7005V23H2.19048ZM12.4057 23C10.7878 23 9.41093 22.4394 8.27513 21.3181C7.13933 20.1969 6.57143 18.8408 6.57143 17.25C6.57143 16.0521 6.90608 14.969 7.5754 14.0007C8.24471 13.0323 9.12698 12.3385 10.2222 11.9193V14.375C9.77601 14.7144 9.42108 15.1387 9.15741 15.6478C8.89374 16.1569 8.7619 16.691 8.7619 17.25C8.7619 18.2483 9.11684 19.0968 9.82672 19.7956C10.5366 20.4944 11.3986 20.8438 12.4127 20.8438C13.4471 20.8438 14.3142 20.4944 15.0139 19.7956C15.7136 19.0968 16.0635 18.2483 16.0635 17.25H18.254C18.254 18.8472 17.6837 20.2049 16.5433 21.3229C15.403 22.441 14.0238 23 12.4057 23ZM21.1746 20.125L18.254 15.8125H11.6825V7.1875H13.873V13.6562H19.4101L23 18.957L21.1746 20.125Z" fill="currentColor"/>
</svg>
