<svg viewBox="0 0 10 10" xmlns="http://www.w3.org/2000/svg" aria-hidden="true" focusable="false">
  <path d="M4.99999 5.00016C5.22916 5.00016 5.42534 4.91857 5.58853 4.75537C5.75173 4.59218 5.83332 4.396 5.83332 4.16683C5.83332 3.93766 5.75173 3.74148 5.58853 3.57829C5.42534 3.41509 5.22916 3.3335 4.99999 3.3335C4.77082 3.3335 4.57464 3.41509 4.41145 3.57829C4.24825 3.74148 4.16666 3.93766 4.16666 4.16683C4.16666 4.396 4.24825 4.59218 4.41145 4.75537C4.57464 4.91857 4.77082 5.00016 4.99999 5.00016ZM4.99999 8.06266C5.84721 7.28489 6.47568 6.57829 6.88541 5.94287C7.29513 5.30746 7.49999 4.74322 7.49999 4.25016C7.49999 3.49322 7.25867 2.87343 6.77603 2.39079C6.29339 1.90815 5.70138 1.66683 4.99999 1.66683C4.2986 1.66683 3.70659 1.90815 3.22395 2.39079C2.74131 2.87343 2.49999 3.49322 2.49999 4.25016C2.49999 4.74322 2.70485 5.30746 3.11457 5.94287C3.5243 6.57829 4.15277 7.28489 4.99999 8.06266ZM4.99999 9.16683C3.88193 8.21544 3.04686 7.33176 2.49478 6.51579C1.9427 5.69982 1.66666 4.94461 1.66666 4.25016C1.66666 3.2085 2.00173 2.37864 2.67186 1.76058C3.342 1.14252 4.11805 0.833496 4.99999 0.833496C5.88193 0.833496 6.65798 1.14252 7.32811 1.76058C7.99825 2.37864 8.33332 3.2085 8.33332 4.25016C8.33332 4.94461 8.05728 5.69982 7.5052 6.51579C6.95311 7.33176 6.11805 8.21544 4.99999 9.16683Z" fill="currentColor"/>
</svg>
