<svg viewBox="0 0 24 24" fill="none" preserveAspectRatio="xMidYMid meet" xmlns="http://www.w3.org/2000/svg">
  <g transform="translate(2 2) scale(1)">
    <path d="M16.6667 20C15.7407 20 14.9537 19.7083 14.3056 19.125C13.6574 18.5417 13.3333 17.8333 13.3333 17C13.3333 16.9 13.3611 16.6667 13.4167 16.3L5.61111 12.2C5.31482 12.45 4.97222 12.6458 4.58333 12.7875C4.19444 12.9292 3.77778 13 3.33333 13C2.40741 13 1.62037 12.7083 0.972222 12.125C0.324074 11.5417 0 10.8333 0 10C0 9.16667 0.324074 8.45833 0.972222 7.875C1.62037 7.29167 2.40741 7 3.33333 7C3.77778 7 4.19444 7.07083 4.58333 7.2125C4.97222 7.35417 5.31482 7.55 5.61111 7.8L13.4167 3.7C13.3796 3.58333 13.3565 3.47083 13.3472 3.3625C13.338 3.25417 13.3333 3.13333 13.3333 3C13.3333 2.16667 13.6574 1.45833 14.3056 0.875C14.9537 0.291667 15.7407 0 16.6667 0C17.5926 0 18.3796 0.291667 19.0278 0.875C19.6759 1.45833 20 2.16667 20 3C20 3.83333 19.6759 4.54167 19.0278 5.125C18.3796 5.70833 17.5926 6 16.6667 6C16.2222 6 15.8056 5.92917 15.4167 5.7875C15.0278 5.64583 14.6852 5.45 14.3889 5.2L6.58333 9.3C6.62037 9.41667 6.64352 9.52917 6.65278 9.6375C6.66204 9.74583 6.66667 9.86667 6.66667 10C6.66667 10.1333 6.66204 10.2542 6.65278 10.3625C6.64352 10.4708 6.62037 10.5833 6.58333 10.7L14.3889 14.8C14.6852 14.55 15.0278 14.3542 15.4167 14.2125C15.8056 14.0708 16.2222 14 16.6667 14C17.5926 14 18.3796 14.2917 19.0278 14.875C19.6759 15.4583 20 16.1667 20 17C20 17.8333 19.6759 18.5417 19.0278 19.125C18.3796 19.7083 17.5926 20 16.6667 20ZM16.6667 18C16.9815 18 17.2454 17.9042 17.4583 17.7125C17.6713 17.5208 17.7778 17.2833 17.7778 17C17.7778 16.7167 17.6713 16.4792 17.4583 16.2875C17.2454 16.0958 16.9815 16 16.6667 16C16.3519 16 16.088 16.0958 15.875 16.2875C15.662 16.4792 15.5556 16.7167 15.5556 17C15.5556 17.2833 15.662 17.5208 15.875 17.7125C16.088 17.9042 16.3519 18 16.6667 18ZM3.33333 11C3.64815 11 3.91204 10.9042 4.125 10.7125C4.33796 10.5208 4.44444 10.2833 4.44444 10C4.44444 9.71667 4.33796 9.47917 4.125 9.2875C3.91204 9.09583 3.64815 9 3.33333 9C3.01852 9 2.75463 9.09583 2.54167 9.2875C2.3287 9.47917 2.22222 9.71667 2.22222 10C2.22222 10.2833 2.3287 10.5208 2.54167 10.7125C2.75463 10.9042 3.01852 11 3.33333 11ZM16.6667 4C16.9815 4 17.2454 3.90417 17.4583 3.7125C17.6713 3.52083 17.7778 3.28333 17.7778 3C17.7778 2.71667 17.6713 2.47917 17.4583 2.2875C17.2454 2.09583 16.9815 2 16.6667 2C16.3519 2 16.088 2.09583 15.875 2.2875C15.662 2.47917 15.5556 2.71667 15.5556 3C15.5556 3.28333 15.662 3.52083 15.875 3.7125C16.088 3.90417 16.3519 4 16.6667 4Z" fill="currentColor"/>
  </g>
</svg>
